<?xml version="1.0" encoding="iso-8859-1"?>
<!-- Generator: Adobe Illustrator 19.0.0, SVG Export Plug-In . SVG Version: 6.00 Build 0)  -->
<svg version="1.1" id="Layer_1" xmlns="http://www.w3.org/2000/svg" xmlns:xlink="http://www.w3.org/1999/xlink" x="0px" y="0px"
	 viewBox="0 0 496.159 496.159" style="enable-background:new 0 0 496.159 496.159;" xml:space="preserve">
<g>
	<path style="fill:#EB9783;" d="M248.083,0.003C111.071,0.003,0,111.063,0,248.085c0,137.001,111.07,248.07,248.083,248.07
		c137.006,0,248.076-111.069,248.076-248.07C496.159,111.062,385.089,0.003,248.083,0.003z"/>
	<path style="fill:#EB9783;" d="M109.718,454.012c39.528,26.609,87.131,42.144,138.365,42.144
		c51.836,0,99.952-15.909,139.752-43.097L109.718,454.012z"/>
</g>
<g>
	<path style="fill:#474441;" d="M373.627,203.267c0-86.468-55.509-118.681-125.306-118.681
		c-69.788,0-125.301,32.213-125.301,118.681c0,36.624-21.257,158.216-31.398,237.321c5.821,4.736,11.854,9.223,18.095,13.424
		l278.117-0.953c6.36-4.344,12.51-8.971,18.426-13.873C397.476,360.929,373.627,239.333,373.627,203.267z"/>
	
		<ellipse transform="matrix(-0.9159 -0.4014 0.4014 -0.9159 168.8993 419.0343)" style="fill:#474441;" cx="128.346" cy="191.824" rx="30" ry="47.564"/>
	
		<ellipse transform="matrix(-0.9159 -0.4014 0.4014 -0.9159 235.9471 325.0372)" style="fill:#474441;" cx="152.023" cy="137.802" rx="30" ry="47.564"/>
	
		<ellipse transform="matrix(-0.9713 -0.2379 0.2379 -0.9713 123.8 670.9898)" style="fill:#474441;" cx="102.388" cy="328.025" rx="30" ry="47.564"/>
	
		<ellipse transform="matrix(-0.9713 -0.2379 0.2379 -0.9713 107.6378 780.0601)" style="fill:#474441;" cx="100.888" cy="383.535" rx="30" ry="47.564"/>
	
		<ellipse transform="matrix(-0.9713 -0.2379 0.2379 -0.9713 165.0697 561.397)" style="fill:#474441;" cx="116.41" cy="270.738" rx="30" ry="47.564"/>
	
		<ellipse transform="matrix(-0.1074 -0.9942 0.9942 -0.1074 156.2483 680.4236)" style="fill:#474441;" cx="383.563" cy="270.073" rx="47.562" ry="30"/>
	
		<ellipse transform="matrix(-0.1074 -0.9942 0.9942 -0.1074 104.9886 751.6471)" style="fill:#474441;" cx="389.905" cy="328.695" rx="47.563" ry="30"/>
	
		<ellipse transform="matrix(-0.1074 -0.9942 0.9942 -0.1074 46.9944 819.5702)" style="fill:#474441;" cx="391.399" cy="388.69" rx="47.564" ry="30"/>
	
		<ellipse transform="matrix(-0.3995 -0.9167 0.9167 -0.3995 335.9077 501.9568)" style="fill:#474441;" cx="332.353" cy="140.963" rx="47.563" ry="29.999"/>
	
		<ellipse transform="matrix(-0.2768 -0.9609 0.9609 -0.2768 264.8195 590.6259)" style="fill:#474441;" cx="354.662" cy="195.661" rx="47.563" ry="29.999"/>
</g>
<polygon style="fill:#B28766;" points="286.326,351.206 209.83,351.206 194.462,430.701 301.694,430.701 "/>
<path style="fill:#BA8E68;" d="M248.322,108.588c-55.328,0-100.183,27.276-100.183,100.491c0,32.833,8.072,88.485,23.934,110.921
	c11.368,16.079,47.572,53.795,76.249,53.795s64.329-34.383,76.839-54.716c14.292-23.229,23.345-77.601,23.345-110
	C348.506,135.864,303.657,108.588,248.322,108.588z"/>
<path style="fill:#EB9783;" d="M247.963,496.154c0.04,0,0.08,0.001,0.12,0.001c0.192,0,0.383-0.007,0.576-0.007
	C248.427,496.148,248.196,496.154,247.963,496.154z"/>
<path style="fill:#B28766;" d="M387.265,408.079c0,0-68.584-16.355-138.286-16.355s-137.088,16.355-137.088,16.355
	c-14.188,0-26.367,10.683-31.636,22.678c44.145,40.575,103.029,65.366,167.709,65.397c0.232,0,0.463-0.006,0.695-0.006
	c65.517-0.149,125.06-25.701,169.323-67.324C412.304,417.639,400.685,408.079,387.265,408.079z"/>
<g>
	<ellipse style="fill:#BA8E68;" cx="339.879" cy="257.459" rx="9" ry="21.749"/>
	<ellipse style="fill:#BA8E68;" cx="154.389" cy="257.459" rx="9" ry="21.749"/>
</g>
<polygon style="fill:#FFFFFF;" points="248.437,319.336 221.043,320.389 248.058,326.946 275.831,320.389 "/>
<path style="fill:#CC9679;" d="M248.437,324.283c-9.131,0-28.442-3.704-28.442-3.704s9.8,16.64,28.443,16.64
	s28.055-16.64,28.055-16.64S257.568,324.283,248.437,324.283z"/>
<path style="fill:#D89A82;" d="M262.134,313.439c-6.85,0-13.696,1.712-13.696,1.712s-6.849-1.712-13.697-1.712
	c-6.849,0-14.746,7.14-14.746,7.14s17.789,1.111,28.443,1.111s28.055-1.111,28.055-1.111S268.982,313.439,262.134,313.439z"/>
<path style="fill:#E8B1A0;" d="M224.163,320.162l17-4.577C229.413,311.412,224.163,320.162,224.163,320.162z"/>
<path style="fill:#666666;" d="M209.805,221.734c-13.915-0.962-26.051,10.658-26.051,10.658
	c-0.198,2.861,10.422,13.18,24.336,14.143c13.915,0.961,26.051-10.658,26.051-10.658S223.72,222.697,209.805,221.734z"/>
<path style="fill:#F7F1ED;" d="M209.568,225.166c-13.165-0.91-24.577,9.035-24.577,9.035c-0.17,2.467,9.934,11.423,23.099,12.334
	c13.165,0.91,24.577-9.037,24.577-9.037S222.733,226.076,209.568,225.166z"/>
<circle style="fill:#474441;" cx="208.809" cy="236.129" r="8.839"/>
<circle style="fill:#333333;" cx="208.809" cy="236.129" r="3.156"/>
<path style="fill:#666666;" d="M285.371,221.734c-13.915,0.963-24.336,14.143-24.336,14.143s12.137,11.619,26.051,10.658
	c13.915-0.963,24.534-11.281,24.336-14.143C311.423,232.392,299.286,220.772,285.371,221.734z"/>
<path style="fill:#F7F1ED;" d="M285.608,225.166c-13.165,0.91-23.099,12.332-23.099,12.332s11.412,9.947,24.577,9.037
	c13.165-0.911,23.269-9.867,23.099-12.334C310.185,234.201,298.773,224.256,285.608,225.166z"/>
<circle style="fill:#474441;" cx="286.369" cy="236.129" r="8.839"/>
<circle style="fill:#333333;" cx="286.369" cy="236.129" r="3.156"/>
<g>
	<path style="fill:#B28766;" d="M265.001,277.63l-9.976-34.996l7.563,36.202c0,0,10.559,7.543,2.112,15.688
		C264.699,294.524,280.085,291.508,265.001,277.63z"/>
	<path style="fill:#B28766;" d="M231.949,277.63c-15.084,13.878,0.302,16.895,0.302,16.895c-8.447-8.146,2.112-15.688,2.112-15.688
		l7.077-36.202L231.949,277.63z"/>
</g>
<g>
	<path style="fill:#474441;" d="M230.694,210.079c0,0-12.757-0.781-17.378-1.058c-4.622-0.275-12.289,0.059-18.622,1.725
		s-19,12.333-19,12.333s14.333-6.583,20-7.25s11.667-0.667,17.667,0s20,3.917,20,3.917L230.694,210.079z"/>
	<path style="fill:#474441;" d="M299.028,210.746c-6.333-1.666-14-2-18.622-1.725c-4.622,0.276-17.378,1.058-17.378,1.058
		l-2.667,9.667c0,0,14-3.25,20-3.917s12-0.667,17.667,0s20,7.25,20,7.25S305.361,212.412,299.028,210.746z"/>
	
		<ellipse transform="matrix(-0.1539 -0.9881 0.9881 -0.1539 142.1638 331.3299)" style="fill:#474441;" cx="212.941" cy="104.797" rx="30" ry="47.565"/>
	
		<ellipse transform="matrix(-0.3501 -0.9367 0.9367 -0.3501 111.9306 360.5057)" style="fill:#474441;" cx="181.026" cy="141.424" rx="26.399" ry="41.85"/>
	
		<ellipse transform="matrix(-0.8292 -0.5589 0.5589 -0.8292 121.1481 506.9054)" style="fill:#474441;" cx="138.016" cy="234.944" rx="26.399" ry="41.849"/>
	
		<ellipse transform="matrix(-0.8292 -0.5589 0.5589 -0.8292 193.1716 411.9052)" style="fill:#474441;" cx="159.514" cy="176.441" rx="26.398" ry="41.848"/>
	
		<ellipse transform="matrix(-0.9367 -0.3501 0.3501 -0.9367 578.5618 387.4587)" style="fill:#474441;" cx="324.302" cy="141.435" rx="41.85" ry="26.399"/>
	
		<ellipse transform="matrix(-0.5589 -0.8292 0.8292 -0.5589 361.9648 650.219)" style="fill:#474441;" cx="353.916" cy="228.841" rx="41.849" ry="26.398"/>
	
		<ellipse transform="matrix(-0.5589 -0.8292 0.8292 -0.5589 376.4661 560.9239)" style="fill:#474441;" cx="337.417" cy="180.336" rx="41.849" ry="26.398"/>
	
		<ellipse transform="matrix(-0.9885 -0.1512 0.1512 -0.9885 524.8769 249.5111)" style="fill:#474441;" cx="271.925" cy="104.8" rx="47.564" ry="30"/>
</g>
<g>
</g>
<g>
</g>
<g>
</g>
<g>
</g>
<g>
</g>
<g>
</g>
<g>
</g>
<g>
</g>
<g>
</g>
<g>
</g>
<g>
</g>
<g>
</g>
<g>
</g>
<g>
</g>
<g>
</g>
</svg>
